<?xml version="1.0" encoding="utf-8"?>
<!-- Generator: Adobe Illustrator 27.1.0, SVG Export Plug-In . SVG Version: 6.00 Build 0)  -->
<svg version="1.1" id="Capa_1" xmlns="http://www.w3.org/2000/svg" xmlns:xlink="http://www.w3.org/1999/xlink" x="0px" y="0px"
	 viewBox="0 0 300 66.8" style="enable-background:new 0 0 300 66.8;" xml:space="preserve">
<g>
	<path d="M0,55.2l34.7-41.7H1.3V0h51.3v11.6L19.4,53.2h33.6v13.5H0V55.2z"/>
	<path d="M109.4,53.2v13.5H62.4V0h46.1v13.5H77.9v13h26.3V39H77.9v14.2H109.4z"/>
	<path d="M134.4,28.6v38.2H119V0h12l31.1,39.2V0h15.4v66.8h-12.4L134.4,28.6z"/>
	<path d="M241.2,13.5h-20.3v53.2h-15.4V13.5h-20.4V0h56.1V13.5z"/>
	<path d="M236.2,66.8L261.9,0h12.5L300,66.8h-16.4l-5.2-15h-20.8l-5.1,15H236.2z M268.1,16.4l-8,24.8h15.7L268.1,16.4z"/>
</g>
</svg>
